# xmcd
#
# Track frame offsets: 
#        183
#        14220
#        26503
#        40388
#        62160
#        76785
#        91673
#        110705
#        128400
#        148725
#        166070
#
# Disc length: 2463 seconds
#
# Revision: 2
# Processed by: cddbd v1.5.2PL0 Copyright (c) Steve Scherf et al.
# Submitted via: ExactAudioCopy v1.0b1
#
DISCID=89099d0b
DTITLE=Earl King - Sexual Telepathy
DYEAR=1990
DGENRE=Blues
TTITLE0=Old Mr. Bad Luck
TTITLE1=I'll Take You Back Home
TTITLE2=A Weary Silent Night
TTITLE3=Time For The Sun To Rise
TTITLE4=No One More For The Road
TTITLE5=Going Public
TTITLE6=Love Is The Way Of Life
TTITLE7=Sexual Telepathy
TTITLE8=Happy Little Nobody's Waggy Tail Dog
TTITLE9=Always A First Time
TTITLE10=Make A Better World
EXTD=
EXTT0=
EXTT1=
EXTT2=
EXTT3=
EXTT4=
EXTT5=
EXTT6=
EXTT7=
EXTT8=
EXTT9=
EXTT10=
PLAYORDER=
